<svg width="95.44309655275427" height="95.44309655275427"
  viewBox="0 0 374.9130434782609 69.9498813558452"
  className="css-1j8o68f">
  <g id="SvgjsG2984"
    transform="matrix(0.7608695652173914,0,0,0.7608695652173914,0,6.00000002267568)">
    <path xmlns="http://www.w3.org/2000/svg"
      d="M89.644,18.983c-0.782-4.68-1.785-7.497-2.88-7.497c-2.488,0-4.505,14.535-4.505,32.466  c0,17.932,2.017,32.467,4.505,32.467c0.922,0,1.779-1.998,2.492-5.421c-1.961-3.01-3.406-13.402-3.406-25.765  C85.848,32.071,87.488,21.146,89.644,18.983z"></path>
    <path xmlns="http://www.w3.org/2000/svg"
      d="M78.382,11.447c-0.988-6.21-2.282-9.973-3.697-9.973c-3.109,0-5.63,18.173-5.63,40.59  c0,22.418,2.521,40.592,5.63,40.592c1.149,0,2.217-2.481,3.109-6.738c-2.493-3.381-4.352-16.388-4.352-31.93  C73.442,27.241,75.6,13.436,78.382,11.447z"></path>
    <path xmlns="http://www.w3.org/2000/svg"
      d="M81.845,43.986c0-16.881,1.753-30.774,4.005-32.589c-0.205-0.131-0.414-0.205-0.625-0.205  c-1.025,0-4.607,0-5.633,0c-0.233,0-0.465,0.094-0.69,0.254c-2.785,1.989-4.94,15.793-4.94,32.54c0,15.544,1.857,28.55,4.351,31.931  c0.412,0.558,0.841,0.863,1.281,0.863c1.024,0,4.606,0,5.632,0c0.212,0,0.42-0.072,0.625-0.206  C83.598,74.762,81.845,60.867,81.845,43.986z"></path>
    <path xmlns="http://www.w3.org/2000/svg"
      d="M92.15,45.233c0-14.285,1.547-25.942,3.484-26.613c-0.071-0.021-0.146-0.032-0.219-0.032  c-0.835,0-3.742,0-4.578,0c-0.266,0-0.526,0.141-0.781,0.396c-2.156,2.163-3.792,13.087-3.792,26.25  c0,12.362,1.444,22.755,3.405,25.765c0.371,0.572,0.766,0.881,1.168,0.881c0.834,0,3.741,0,4.576,0c0.074,0,0.147-0.013,0.221-0.031  C93.697,71.18,92.15,59.522,92.15,45.233z"></path>
    <path xmlns="http://www.w3.org/2000/svg"
      d="M96.339,18.588c-2.021,0-3.659,11.929-3.659,26.646c0,14.717,1.639,26.646,3.659,26.646  c2.023,0,3.661-11.93,3.661-26.646C100,30.517,98.362,18.588,96.339,18.588z M96.96,51.859c-0.629,0-1.139-2.969-1.139-6.626  c0-3.659,0.51-6.625,1.139-6.625s1.14,2.967,1.14,6.625C98.1,48.891,97.589,51.859,96.96,51.859z"></path>
    <path xmlns="http://www.w3.org/2000/svg"
      d="M28.421,43.033c0-3.658,0.51-6.624,1.14-6.624h3.132c-0.314-20.475-2.7-36.392-5.595-36.392  c-3.111,0-5.632,18.353-5.632,40.993c0,22.641,2.521,40.994,5.632,40.994c2.703,0,4.96-13.858,5.505-32.345h-3.042  C28.932,49.659,28.421,46.694,28.421,43.033z"></path>
    <path xmlns="http://www.w3.org/2000/svg"
      d="M68.541,42.051c0-21.099,2.19-38.474,5.006-40.739C73.29,1.146,73.03,1.06,72.764,1.06  c-1.281,0-5.755,0-7.039,0c-3.557,0-6.498,15.383-6.97,35.351H33.21h-3.132c-0.63,0-1.14,2.966-1.14,6.625  c0,3.658,0.51,6.625,1.14,6.625h3.042H58.81c0.613,19.002,3.476,33.384,6.915,33.384c1.284,0,5.758,0,7.039,0  c0.265,0,0.526-0.088,0.783-0.254C70.731,80.525,68.541,63.152,68.541,42.051z"></path>
    <path xmlns="http://www.w3.org/2000/svg"
      d="M20.728,40.994c0-21.102,2.19-38.475,5.005-40.74C25.476,0.088,25.215,0,24.95,0c-1.283,0-5.756,0-7.04,0  c-1.616,0-3.105,3.175-4.293,8.509c-1.371,0-2.955,0-3.583,0c-0.441,0-0.87,0.304-1.281,0.863c-0.782,1.061-1.5,3.069-2.12,5.805  c-0.856,0-1.675,0-2.057,0c-0.405,0-0.796,0.309-1.17,0.881C1.446,19.066,0,29.46,0,41.823c0,13.162,1.639,24.086,3.794,26.249  c0.253,0.256,0.515,0.396,0.782,0.396c0.419,0,1.365,0,2.307,0c0.719,2.833,1.555,4.731,2.459,5.375  C9.57,74.007,9.8,74.1,10.034,74.1c0.65,0,2.324,0,3.725,0c1.165,4.959,2.599,7.889,4.151,7.889c1.283,0,5.757,0,7.04,0  c0.264,0,0.524-0.088,0.783-0.253C22.918,79.468,20.728,62.094,20.728,40.994z"></path>
  </g>
</svg>